<mxfile host="65bd71144e">
    <diagram id="YGd1CY4fR-nAQpKZttli" name="Page-1">
        <mxGraphModel dx="1054" dy="583" grid="1" gridSize="10" guides="1" tooltips="1" connect="1" arrows="1" fold="1" page="1" pageScale="1" pageWidth="850" pageHeight="1100" math="0" shadow="0">
            <root>
                <mxCell id="0"/>
                <mxCell id="1" parent="0"/>
                <mxCell id="2" value="" style="whiteSpace=wrap;html=1;aspect=fixed;rotation=0;" vertex="1" parent="1">
                    <mxGeometry x="125" y="90" width="600" height="400" as="geometry"/>
                </mxCell>
                <mxCell id="3" value="// login fields and buttons here" style="rounded=1;whiteSpace=wrap;html=1;" vertex="1" parent="1">
                    <mxGeometry x="297" y="202.5" width="257" height="175" as="geometry"/>
                </mxCell>
            </root>
        </mxGraphModel>
    </diagram>
</mxfile>